PathFileType	4	(X/Y/Z)	s06c0403.trc
DataRate	CameraRate	NumFrames	NumMarkers	Units	OrigDataRate	OrigDataStartFrame	OrigNumFrames
200	200	4	48	mm	200	750	2000
Frame#	Time	racr			lacr			c7			jug			rlel			rdr			llel			ldr			s2			lic			ric			lasi			rasi			rpsi			lpsi			rgt			lgt			rth1			rth2			rth3			rth4			rlfc			rmfc			rsh1			rsh2			rsh3			rsh4			rlmal			rcal			rtoe			rmt5			lth1			lth2			lth4			lth3			llfc			lmfc			llmal			lcal			lmt5			lsh1			lsh2			lsh3			lsh4			ltoe			SBIKE			LBIKE			RBIKE			
		X1	Y1	Z1	X2	Y2	Z2	X3	Y3	Z3	X4	Y4	Z4	X5	Y5	Z5	X6	Y6	Z6	X7	Y7	Z7	X8	Y8	Z8	X9	Y9	Z9	X10	Y10	Z10	X11	Y11	Z11	X12	Y12	Z12	X13	Y13	Z13	X14	Y14	Z14	X15	Y15	Z15	X16	Y16	Z16	X17	Y17	Z17	X18	Y18	Z18	X19	Y19	Z19	X20	Y20	Z20	X21	Y21	Z21	X22	Y22	Z22	X23	Y23	Z23	X24	Y24	Z24	X25	Y25	Z25	X26	Y26	Z26	X27	Y27	Z27	X28	Y28	Z28	X29	Y29	Z29	X30	Y30	Z30	X31	Y31	Z31	X32	Y32	Z32	X33	Y33	Z33	X34	Y34	Z34	X35	Y35	Z35	X36	Y36	Z36	X37	Y37	Z37	X38	Y38	Z38	X39	Y39	Z39	X40	Y40	Z40	X41	Y41	Z41	X42	Y42	Z42	X43	Y43	Z43	X44	Y44	Z44	X45	Y45	Z45	X46	Y46	Z46	X47	Y47	Z47	X48	Y48	Z48	
750	3.7500	781.799376	1201.632580	-54.689950	769.416768	1201.759051	-395.543573	813.515980	1304.370261	-226.405709	757.104527	1144.973932	-226.565827	559.472163	1077.002347	76.082161	674.092226	939.336038	-47.835020	560.324232	1069.361098	-527.474342	672.024729	924.719213	-412.582166	236.890633	1206.135366	-194.675572	379.905691	1167.173406	-367.735240	376.236103	1118.371128	-36.547952	390.671963	1109.084687	-333.650970	393.102974	1072.358632	-78.755430	278.832473	1227.807957	-158.535052	275.497122	1237.901185	-216.382961	310.402301	1041.681670	-22.722177	350.076175	1117.511812	-400.708015	330.463691	913.041028	-0.237521	352.330728	825.290626	-6.212904	329.817294	741.958834	-16.552422	388.698334	827.314039	-18.581510	325.499563	636.403158	-29.124462	315.916517	613.007798	-137.145858	292.673969	517.133477	-6.518101	292.741833	431.372288	-25.546877	250.826356	355.233781	-32.530324	315.208676	430.559658	-59.820244	225.355546	278.291787	-41.546347	160.097069	279.295399	-89.012609	398.790281	137.895583	-97.960030	304.894705	162.975163	-24.686942	401.407077	1011.752634	-422.883279	474.015110	955.037102	-419.206710	499.096710	979.202013	-409.687228	505.067095	876.091903	-426.980698	523.793635	766.213213	-404.176507	525.927214	748.050771	-287.870408	194.534607	601.613339	-377.420108	136.525247	646.253715	-328.339172	183.868523	454.040684	-399.390684	438.815345	703.839123	-420.044017	373.040976	652.685754	-395.017303	286.112610	634.815962	-391.227559	388.174126	633.861234	-363.979313	227.575300	378.452276	-340.833284	-203.632114	865.083151	-210.081693	-50.880027	80.370686	-411.112507	-50.834172	79.809530	-13.713983	
751	3.7550	781.885447	1204.291841	-56.386887	769.674304	1203.080226	-397.480820	813.011005	1305.396803	-228.351627	757.121914	1145.821086	-227.181564	560.901177	1076.920108	75.089848	677.132199	938.653384	-49.572604	559.939088	1069.563348	-528.159100	672.032866	925.470388	-412.819370	236.390858	1203.524750	-192.630514	378.122665	1168.154084	-367.548150	379.314110	1116.105377	-37.135266	390.493505	1110.563730	-334.397342	395.688017	1070.530693	-80.017652	278.601557	1225.533227	-156.277354	274.691766	1236.271924	-213.938491	311.874946	1037.867701	-23.159424	348.402611	1118.627486	-401.477840	327.883352	911.181011	-0.978105	347.392578	822.566452	-7.297080	322.377749	740.082786	-17.515914	383.553813	823.615291	-20.098466	315.957416	634.697634	-29.870406	304.339221	612.266152	-138.743668	284.117319	515.294643	-6.753245	284.660692	429.471316	-25.690376	243.245307	353.012432	-32.606029	307.142364	428.790148	-59.933819	218.847224	275.920863	-41.537605	154.397015	278.421845	-89.055635	389.235265	130.586124	-97.763376	295.903778	158.239252	-24.551629	400.732051	1013.610726	-425.463043	476.171329	957.962872	-420.204329	499.415008	983.206739	-410.489583	508.436666	880.960422	-428.367344	531.476927	772.887480	-403.677058	533.487327	754.932701	-287.307082	202.330041	606.747959	-377.327194	143.308755	650.561979	-328.457915	193.494452	459.158463	-399.310805	447.164367	710.175239	-419.464439	381.390166	658.829132	-394.654912	294.462423	640.871029	-391.000826	396.522382	639.932932	-363.721940	238.330567	384.225497	-340.768758	-203.789145	865.121575	-210.003006	-50.884269	80.417290	-411.102652	-50.877853	79.949633	-13.699848	
752	3.7600	782.043836	1206.911504	-57.939044	769.955397	1204.364605	-399.396639	812.470270	1306.241570	-230.135160	757.165425	1146.480248	-227.511089	562.162420	1077.423178	74.232031	678.910136	938.881245	-50.505636	559.665930	1069.929664	-528.679698	672.190849	926.380935	-412.898455	236.714665	1201.648686	-189.814939	376.470702	1169.346500	-367.462509	382.395393	1114.001783	-37.717313	390.383910	1112.138709	-335.008433	398.358581	1068.688660	-81.040422	279.528203	1223.146360	-154.642420	274.082615	1235.032427	-211.644936	313.532904	1034.598767	-23.515730	346.554045	1119.337669	-402.217340	325.542597	909.662634	-2.159270	347.063903	821.863007	-6.431991	315.347635	738.873730	-18.370086	378.576249	820.631216	-21.805168	306.722619	633.648225	-30.679264	294.353812	611.319495	-140.347687	275.519109	514.098724	-7.046237	276.733304	428.390346	-25.824247	235.906931	351.464083	-32.760593	298.826197	427.472799	-59.994916	212.394367	274.290211	-41.729354	148.708422	278.634740	-89.276946	379.447876	123.705811	-97.442094	286.819613	154.152299	-24.499687	399.613473	1014.990554	-428.874582	478.056661	960.502325	-421.150230	499.395329	986.582346	-408.415371	511.396769	885.591038	-429.773142	538.771737	779.572569	-403.175483	540.843098	761.935620	-285.888845	210.088454	611.314035	-376.947859	149.972044	653.895798	-328.237570	203.575004	463.595234	-399.327570	455.069567	716.508726	-418.796717	389.662876	664.868013	-394.299934	302.575767	646.506685	-390.730706	404.703265	645.531499	-363.565548	249.903587	389.907642	-341.370885	-203.933659	865.147694	-209.819186	-50.902548	80.482287	-411.033308	-50.879038	79.923613	-13.682297	
753	3.7650	782.342131	1209.150338	-59.392301	770.365586	1205.592557	-401.234049	811.965641	1306.928884	-231.725580	757.428805	1146.930600	-227.807523	563.272331	1078.505641	73.379404	680.053110	939.272446	-50.918955	559.618271	1070.419728	-528.930756	672.451082	927.283056	-412.841500	236.934019	1200.215434	-187.360877	374.830118	1170.586752	-367.569684	386.897032	1112.735175	-37.308623	390.250522	1113.538506	-333.982947	402.422130	1068.270566	-81.668601	277.442892	1223.122344	-151.499686	274.181893	1234.024735	-210.061855	315.197563	1031.696039	-24.186554	344.545015	1119.794295	-402.890475	323.632866	908.646045	-3.693345	341.461539	820.144920	-8.534888	309.133386	738.172123	-19.271863	374.498812	818.377792	-23.593929	297.814690	633.116797	-31.565849	285.167694	610.420793	-141.892301	267.046588	513.601933	-7.342624	268.874087	427.699003	-26.062790	228.775783	350.544568	-32.810624	291.252541	427.012692	-59.956597	206.429514	273.243243	-41.992260	143.629455	279.490302	-89.426910	369.444382	117.144984	-97.249941	277.767260	150.639974	-24.396846	398.855015	1015.763215	-431.923180	479.676297	962.665886	-422.045712	498.005468	990.486247	-407.661149	514.103030	890.292206	-430.851765	545.335132	786.401700	-403.124401	547.142594	768.730571	-285.107565	217.819264	615.113530	-376.347813	156.730573	656.445595	-327.917728	213.871704	467.316213	-399.119288	462.521981	722.758554	-418.235781	397.392568	670.428906	-394.110989	310.449263	651.653481	-390.409201	412.662781	650.922061	-363.661359	260.910174	394.168118	-341.028726	-204.053194	865.164289	-209.615201	-50.887876	80.638265	-411.056877	-50.812919	79.799137	-13.695470	
